<svg width="141" height="38" viewBox="0 0 141 38" fill="none" xmlns="http://www.w3.org/2000/svg">
<circle cx="12.5174" cy="7.21682" r="0.937768" fill="url(#paint0_linear_120_498)"/>
<path fill-rule="evenodd" clip-rule="evenodd" d="M10.5939 8.61887C10.916 8.93359 10.9221 9.44987 10.6073 9.77202C8.81482 11.6068 7.53823 13.8822 6.90652 16.3683C6.79561 16.8048 6.35185 17.0687 5.91536 16.9578C5.47887 16.8469 5.21494 16.4031 5.32585 15.9666C6.02825 13.2024 7.44767 10.6724 9.44075 8.63232C9.75547 8.31018 10.2717 8.30416 10.5939 8.61887Z" fill="url(#paint1_linear_120_498)"/>
<path fill-rule="evenodd" clip-rule="evenodd" d="M32.0502 32.8092C28.6465 36.027 24.0536 38 19 38C8.50659 38 0 29.4934 0 19C0 8.50659 8.50659 0 19 0C29.4934 0 38 8.50659 38 19C38 19.544 37.9771 20.0827 37.9323 20.6152C37.951 20.282 37.9605 19.9464 37.9605 19.6086C37.9605 9.83509 30.0375 1.91212 20.264 1.91212C10.4905 1.91212 2.56753 9.83509 2.56753 19.6086C2.56753 29.3821 10.4905 37.305 20.264 37.305C24.7908 37.305 28.9207 35.6053 32.0502 32.8092Z" fill="url(#paint2_linear_120_498)"/>
<path fill-rule="evenodd" clip-rule="evenodd" d="M13.5636 16.3451C13.3879 13.423 15.6142 10.9117 18.5362 10.7359L24.3765 10.3846C25.5004 10.317 26.4663 11.1733 26.5339 12.2972C26.6015 13.421 25.7452 14.3869 24.6213 14.4545L18.781 14.8058C18.1067 14.8464 17.593 15.4259 17.6335 16.1002L18.2884 26.9872C18.356 28.1111 17.4998 29.077 16.3759 29.1446C15.252 29.2122 14.2861 28.3559 14.2185 27.232L13.5636 16.3451Z" fill="url(#paint3_linear_120_498)"/>
<path fill-rule="evenodd" clip-rule="evenodd" d="M13.7594 19.6011C13.6918 18.4772 14.548 17.5114 15.6719 17.4438L22.0413 17.0606C23.1652 16.993 24.1311 17.8493 24.1987 18.9731C24.2663 20.097 23.41 21.0629 22.2861 21.1305L15.9167 21.5136C14.7929 21.5813 13.827 20.725 13.7594 19.6011Z" fill="url(#paint4_linear_120_498)"/>
<path d="M60.3249 12.8249V15.0792H54.5194V18.6503H58.9683V20.8647H54.5194V26.75H51.7264V12.8249H60.3249ZM72.7392 15.6977V26.75H69.9263V25.3535C69.5672 25.8323 69.095 26.2113 68.5098 26.4906C67.9379 26.7567 67.3128 26.8897 66.6345 26.8897C65.77 26.8897 65.0053 26.7101 64.3403 26.351C63.6753 25.9786 63.1499 25.4399 62.7642 24.735C62.3918 24.0168 62.2056 23.1656 62.2056 22.1814V15.6977H64.9986V21.7824C64.9986 22.6602 65.2181 23.3385 65.657 23.8173C66.0959 24.2828 66.6944 24.5156 67.4525 24.5156C68.2239 24.5156 68.829 24.2828 69.2679 23.8173C69.7068 23.3385 69.9263 22.6602 69.9263 21.7824V15.6977H72.7392ZM81.6196 15.5381C82.9363 15.5381 84.0003 15.957 84.8116 16.7949C85.6229 17.6195 86.0286 18.7766 86.0286 20.2662V26.75H83.2356V20.6453C83.2356 19.7675 83.0161 19.0958 82.5772 18.6303C82.1383 18.1515 81.5398 17.9121 80.7817 17.9121C80.0103 17.9121 79.3985 18.1515 78.9463 18.6303C78.5074 19.0958 78.288 19.7675 78.288 20.6453V26.75H75.495V15.6977H78.288V17.0742C78.6604 16.5954 79.1325 16.223 79.7044 15.957C80.2896 15.6777 80.928 15.5381 81.6196 15.5381ZM87.9664 21.1839C87.9664 20.0667 88.1858 19.0759 88.6247 18.2114C89.0769 17.3469 89.6887 16.6819 90.4601 16.2164C91.2315 15.7509 92.0894 15.5181 93.0337 15.5181C93.7519 15.5181 94.4368 15.6777 95.0885 15.9969C95.7402 16.3028 96.2589 16.7151 96.6446 17.2338V11.987H99.4775V26.75H96.6446V25.1141C96.2988 25.6594 95.8134 26.0983 95.1883 26.4308C94.5632 26.7633 93.8383 26.9296 93.0137 26.9296C92.0827 26.9296 91.2315 26.6902 90.4601 26.2113C89.6887 25.7325 89.0769 25.0609 88.6247 24.1964C88.1858 23.3186 87.9664 22.3144 87.9664 21.1839ZM96.6646 21.2238C96.6646 20.5455 96.5316 19.967 96.2656 19.4882C95.9996 18.9961 95.6405 18.6237 95.1883 18.371C94.7361 18.105 94.2506 17.972 93.7319 17.972C93.2132 17.972 92.7344 18.0983 92.2955 18.351C91.8566 18.6037 91.4975 18.9761 91.2182 19.4682C90.9522 19.947 90.8192 20.5189 90.8192 21.1839C90.8192 21.8489 90.9522 22.4341 91.2182 22.9395C91.4975 23.4316 91.8566 23.8107 92.2955 24.0767C92.7477 24.3427 93.2265 24.4757 93.7319 24.4757C94.2506 24.4757 94.7361 24.3493 95.1883 24.0966C95.6405 23.8306 95.9996 23.4582 96.2656 22.9794C96.5316 22.4873 96.6646 21.9021 96.6646 21.2238ZM104.998 17.2937C105.357 16.7883 105.85 16.3693 106.475 16.0368C107.113 15.691 107.838 15.5181 108.649 15.5181C109.594 15.5181 110.445 15.7509 111.203 16.2164C111.974 16.6819 112.579 17.3469 113.018 18.2114C113.47 19.0626 113.697 20.0534 113.697 21.1839C113.697 22.3144 113.47 23.3186 113.018 24.1964C112.579 25.0609 111.974 25.7325 111.203 26.2113C110.445 26.6902 109.594 26.9296 108.649 26.9296C107.838 26.9296 107.12 26.7633 106.495 26.4308C105.883 26.0983 105.384 25.6793 104.998 25.1739V32.0168H102.205V15.6977H104.998V17.2937ZM110.844 21.1839C110.844 20.5189 110.704 19.947 110.425 19.4682C110.159 18.9761 109.8 18.6037 109.347 18.351C108.909 18.0983 108.43 17.972 107.911 17.972C107.406 17.972 106.927 18.105 106.475 18.371C106.036 18.6237 105.677 18.9961 105.397 19.4882C105.131 19.9803 104.998 20.5588 104.998 21.2238C104.998 21.8888 105.131 22.4674 105.397 22.9595C105.677 23.4516 106.036 23.8306 106.475 24.0966C106.927 24.3493 107.406 24.4757 107.911 24.4757C108.43 24.4757 108.909 24.3427 109.347 24.0767C109.8 23.8107 110.159 23.4316 110.425 22.9395C110.704 22.4474 110.844 21.8622 110.844 21.1839ZM120.634 26.9296C119.57 26.9296 118.612 26.6968 117.761 26.2313C116.91 25.7525 116.238 25.0808 115.746 24.2163C115.267 23.3518 115.028 22.3543 115.028 21.2238C115.028 20.0933 115.274 19.0958 115.766 18.2313C116.271 17.3668 116.956 16.7018 117.821 16.2363C118.685 15.7575 119.65 15.5181 120.714 15.5181C121.778 15.5181 122.742 15.7575 123.606 16.2363C124.471 16.7018 125.149 17.3668 125.641 18.2313C126.147 19.0958 126.399 20.0933 126.399 21.2238C126.399 22.3543 126.14 23.3518 125.621 24.2163C125.116 25.0808 124.424 25.7525 123.547 26.2313C122.682 26.6968 121.711 26.9296 120.634 26.9296ZM120.634 24.4956C121.139 24.4956 121.611 24.3759 122.05 24.1365C122.503 23.8838 122.862 23.5114 123.128 23.0193C123.394 22.5272 123.527 21.9287 123.527 21.2238C123.527 20.1731 123.247 19.3685 122.689 18.8099C122.143 18.238 121.472 17.952 120.674 17.952C119.876 17.952 119.204 18.238 118.659 18.8099C118.127 19.3685 117.861 20.1731 117.861 21.2238C117.861 22.2745 118.12 23.0858 118.639 23.6577C119.171 24.2163 119.836 24.4956 120.634 24.4956ZM131.241 17.2937C131.6 16.7883 132.092 16.3693 132.717 16.0368C133.356 15.691 134.081 15.5181 134.892 15.5181C135.836 15.5181 136.688 15.7509 137.446 16.2164C138.217 16.6819 138.822 17.3469 139.261 18.2114C139.713 19.0626 139.939 20.0534 139.939 21.1839C139.939 22.3144 139.713 23.3186 139.261 24.1964C138.822 25.0609 138.217 25.7325 137.446 26.2113C136.688 26.6902 135.836 26.9296 134.892 26.9296C134.081 26.9296 133.363 26.7633 132.737 26.4308C132.126 26.0983 131.627 25.6793 131.241 25.1739V32.0168H128.448V15.6977H131.241V17.2937ZM137.087 21.1839C137.087 20.5189 136.947 19.947 136.668 19.4682C136.402 18.9761 136.042 18.6037 135.59 18.351C135.151 18.0983 134.673 17.972 134.154 17.972C133.648 17.972 133.17 18.105 132.717 18.371C132.279 18.6237 131.919 18.9961 131.64 19.4882C131.374 19.9803 131.241 20.5588 131.241 21.2238C131.241 21.8888 131.374 22.4674 131.64 22.9595C131.919 23.4516 132.279 23.8306 132.717 24.0966C133.17 24.3493 133.648 24.4757 134.154 24.4757C134.673 24.4757 135.151 24.3427 135.59 24.0767C136.042 23.8107 136.402 23.4316 136.668 22.9395C136.947 22.4474 137.087 21.8622 137.087 21.1839Z" fill="url(#paint5_linear_120_498)"/>
<defs>
<linearGradient id="paint0_linear_120_498" x1="12.5517" y1="6.05306" x2="11.8327" y2="8.39886" gradientUnits="userSpaceOnUse">
<stop stop-color="#1E4B9B"/>
<stop offset="1" stop-color="#A13DCF"/>
</linearGradient>
<linearGradient id="paint1_linear_120_498" x1="8.17156" y1="7.35089" x2="3.60883" y2="16.9423" gradientUnits="userSpaceOnUse">
<stop stop-color="#1E4B9B"/>
<stop offset="1" stop-color="#A13DCF"/>
</linearGradient>
<linearGradient id="paint2_linear_120_498" x1="19.6966" y1="-4.57884" x2="5.12858" y2="42.9491" gradientUnits="userSpaceOnUse">
<stop stop-color="#1E4B9B"/>
<stop offset="1" stop-color="#A13DCF"/>
</linearGradient>
<linearGradient id="paint3_linear_120_498" x1="19.9378" y1="8.44912" x2="12.2524" y2="30.11" gradientUnits="userSpaceOnUse">
<stop stop-color="#1E4B9B"/>
<stop offset="1" stop-color="#A13DCF"/>
</linearGradient>
<linearGradient id="paint4_linear_120_498" x1="19.0185" y1="16.7503" x2="18.6927" y2="22.2799" gradientUnits="userSpaceOnUse">
<stop stop-color="#1E4B9B"/>
<stop offset="1" stop-color="#A13DCF"/>
</linearGradient>
<linearGradient id="paint5_linear_120_498" x1="97.5181" y1="1.01463" x2="93.137" y2="42.9727" gradientUnits="userSpaceOnUse">
<stop stop-color="#1E4B9B"/>
<stop offset="1" stop-color="#A13DCF"/>
</linearGradient>
</defs>
</svg>
