<svg width="540" height="185" viewBox="0 0 540 185" fill="none" xmlns="http://www.w3.org/2000/svg">
<g clip-path="url(#clip0_144_637)">
<rect width="540" height="185" rx="8" fill="#7B42C0"/>
<path opacity="0.3" d="M-12.5 93L96.5 0L49 183L230 0L200.5 183L372 0L351 183L497.5 0L485.5 183L552.5 98" stroke="#632CA5" stroke-width="18"/>
<g filter="url(#filter0_d_144_637)">
<path d="M212.513 74.95C212.513 73.3707 212.866 71.96 213.571 70.718C214.292 69.4607 215.266 68.487 216.492 67.797C217.734 67.0917 219.122 66.739 220.655 66.739C222.449 66.739 224.021 67.199 225.37 68.119C226.72 69.039 227.663 70.3117 228.199 71.937H224.496C224.128 71.1703 223.607 70.5953 222.932 70.212C222.273 69.8287 221.506 69.637 220.632 69.637C219.697 69.637 218.861 69.8593 218.125 70.304C217.405 70.7333 216.837 71.3467 216.423 72.144C216.025 72.9413 215.825 73.8767 215.825 74.95C215.825 76.008 216.025 76.9433 216.423 77.756C216.837 78.5533 217.405 79.1743 218.125 79.619C218.861 80.0483 219.697 80.263 220.632 80.263C221.506 80.263 222.273 80.0713 222.932 79.688C223.607 79.2893 224.128 78.7067 224.496 77.94H228.199C227.663 79.5807 226.72 80.861 225.37 81.781C224.036 82.6857 222.465 83.138 220.655 83.138C219.122 83.138 217.734 82.793 216.492 82.103C215.266 81.3977 214.292 80.424 213.571 79.182C212.866 77.94 212.513 76.5293 212.513 74.95ZM236.608 83.207C235.381 83.207 234.277 82.9387 233.296 82.402C232.314 81.85 231.54 81.0757 230.973 80.079C230.421 79.0823 230.145 77.9323 230.145 76.629C230.145 75.3257 230.428 74.1757 230.996 73.179C231.578 72.1823 232.368 71.4157 233.365 70.879C234.361 70.327 235.473 70.051 236.7 70.051C237.926 70.051 239.038 70.327 240.035 70.879C241.031 71.4157 241.813 72.1823 242.381 73.179C242.963 74.1757 243.255 75.3257 243.255 76.629C243.255 77.9323 242.956 79.0823 242.358 80.079C241.775 81.0757 240.978 81.85 239.966 82.402C238.969 82.9387 237.85 83.207 236.608 83.207ZM236.608 80.401C237.19 80.401 237.735 80.263 238.241 79.987C238.762 79.6957 239.176 79.2663 239.483 78.699C239.789 78.1317 239.943 77.4417 239.943 76.629C239.943 75.4177 239.621 74.49 238.977 73.846C238.348 73.1867 237.574 72.857 236.654 72.857C235.734 72.857 234.959 73.1867 234.331 73.846C233.717 74.49 233.411 75.4177 233.411 76.629C233.411 77.8403 233.71 78.7757 234.308 79.435C234.921 80.079 235.688 80.401 236.608 80.401ZM252.678 70.074C254.196 70.074 255.422 70.557 256.358 71.523C257.293 72.4737 257.761 73.8077 257.761 75.525V83H254.541V75.962C254.541 74.95 254.288 74.1757 253.782 73.639C253.276 73.087 252.586 72.811 251.712 72.811C250.822 72.811 250.117 73.087 249.596 73.639C249.09 74.1757 248.837 74.95 248.837 75.962V83H245.617V70.258H248.837V71.845C249.266 71.293 249.81 70.8637 250.47 70.557C251.144 70.235 251.88 70.074 252.678 70.074ZM265.814 70.051C266.765 70.051 267.6 70.2427 268.321 70.626C269.042 70.994 269.609 71.477 270.023 72.075V70.258H273.266V83.092C273.266 84.2727 273.028 85.323 272.553 86.243C272.078 87.1783 271.365 87.9143 270.414 88.451C269.463 89.003 268.313 89.279 266.964 89.279C265.155 89.279 263.667 88.8573 262.502 88.014C261.352 87.1707 260.7 86.0207 260.547 84.564H263.744C263.913 85.1467 264.273 85.6067 264.825 85.944C265.392 86.2967 266.075 86.473 266.872 86.473C267.807 86.473 268.566 86.1893 269.149 85.622C269.732 85.07 270.023 84.2267 270.023 83.092V81.114C269.609 81.712 269.034 82.2103 268.298 82.609C267.577 83.0077 266.749 83.207 265.814 83.207C264.741 83.207 263.759 82.931 262.87 82.379C261.981 81.827 261.275 81.0527 260.754 80.056C260.248 79.044 259.995 77.8863 259.995 76.583C259.995 75.295 260.248 74.1527 260.754 73.156C261.275 72.1593 261.973 71.3927 262.847 70.856C263.736 70.3193 264.725 70.051 265.814 70.051ZM270.023 76.629C270.023 75.847 269.87 75.18 269.563 74.628C269.256 74.0607 268.842 73.6313 268.321 73.34C267.8 73.0333 267.24 72.88 266.642 72.88C266.044 72.88 265.492 73.0257 264.986 73.317C264.48 73.6083 264.066 74.0377 263.744 74.605C263.437 75.157 263.284 75.8163 263.284 76.583C263.284 77.3497 263.437 78.0243 263.744 78.607C264.066 79.1743 264.48 79.6113 264.986 79.918C265.507 80.2247 266.059 80.378 266.642 80.378C267.24 80.378 267.8 80.2323 268.321 79.941C268.842 79.6343 269.256 79.205 269.563 78.653C269.87 78.0857 270.023 77.411 270.023 76.629ZM279.631 72.236C280.045 71.5613 280.581 71.0323 281.241 70.649C281.915 70.2657 282.682 70.074 283.541 70.074V73.455H282.69C281.678 73.455 280.911 73.6927 280.39 74.168C279.884 74.6433 279.631 75.4713 279.631 76.652V83H276.411V70.258H279.631V72.236ZM284.882 76.583C284.882 75.295 285.135 74.1527 285.641 73.156C286.162 72.1593 286.86 71.3927 287.734 70.856C288.623 70.3193 289.612 70.051 290.701 70.051C291.651 70.051 292.479 70.2427 293.185 70.626C293.905 71.0093 294.48 71.4923 294.91 72.075V70.258H298.153V83H294.91V81.137C294.496 81.735 293.921 82.2333 293.185 82.632C292.464 83.0153 291.628 83.207 290.678 83.207C289.604 83.207 288.623 82.931 287.734 82.379C286.86 81.827 286.162 81.0527 285.641 80.056C285.135 79.044 284.882 77.8863 284.882 76.583ZM294.91 76.629C294.91 75.847 294.756 75.18 294.45 74.628C294.143 74.0607 293.729 73.6313 293.208 73.34C292.686 73.0333 292.127 72.88 291.529 72.88C290.931 72.88 290.379 73.0257 289.873 73.317C289.367 73.6083 288.953 74.0377 288.631 74.605C288.324 75.157 288.171 75.8163 288.171 76.583C288.171 77.3497 288.324 78.0243 288.631 78.607C288.953 79.1743 289.367 79.6113 289.873 79.918C290.394 80.2247 290.946 80.378 291.529 80.378C292.127 80.378 292.686 80.2323 293.208 79.941C293.729 79.6343 294.143 79.205 294.45 78.653C294.756 78.0857 294.91 77.411 294.91 76.629ZM305.046 72.903V79.067C305.046 79.4963 305.146 79.8107 305.345 80.01C305.56 80.194 305.913 80.286 306.403 80.286H307.898V83H305.874C303.16 83 301.803 81.6813 301.803 79.044V72.903H300.285V70.258H301.803V67.107H305.046V70.258H307.898V72.903H305.046ZM315.09 83.207C314.048 83.207 313.112 83.023 312.284 82.655C311.456 82.2717 310.797 81.758 310.306 81.114C309.831 80.47 309.57 79.757 309.524 78.975H312.767C312.829 79.4657 313.066 79.872 313.48 80.194C313.91 80.516 314.439 80.677 315.067 80.677C315.681 80.677 316.156 80.5543 316.493 80.309C316.846 80.0637 317.022 79.7493 317.022 79.366C317.022 78.952 316.808 78.6453 316.378 78.446C315.964 78.2313 315.297 78.0013 314.377 77.756C313.427 77.526 312.645 77.2883 312.031 77.043C311.433 76.7977 310.912 76.422 310.467 75.916C310.038 75.41 309.823 74.7277 309.823 73.869C309.823 73.1637 310.023 72.5197 310.421 71.937C310.835 71.3543 311.418 70.8943 312.169 70.557C312.936 70.2197 313.833 70.051 314.86 70.051C316.378 70.051 317.59 70.4343 318.494 71.201C319.399 71.9523 319.897 72.972 319.989 74.26H316.907C316.861 73.754 316.647 73.3553 316.263 73.064C315.895 72.7573 315.397 72.604 314.768 72.604C314.186 72.604 313.733 72.7113 313.411 72.926C313.105 73.1407 312.951 73.4397 312.951 73.823C312.951 74.2523 313.166 74.582 313.595 74.812C314.025 75.0267 314.692 75.249 315.596 75.479C316.516 75.709 317.275 75.9467 317.873 76.192C318.471 76.4373 318.985 76.8207 319.414 77.342C319.859 77.848 320.089 78.5227 320.104 79.366C320.104 80.102 319.897 80.7613 319.483 81.344C319.085 81.9267 318.502 82.3867 317.735 82.724C316.984 83.046 316.102 83.207 315.09 83.207ZM326.911 66.67L326.543 77.779H323.829L323.438 66.67H326.911ZM325.255 83.161C324.672 83.161 324.189 82.9847 323.806 82.632C323.438 82.264 323.254 81.8117 323.254 81.275C323.254 80.7383 323.438 80.2937 323.806 79.941C324.189 79.573 324.672 79.389 325.255 79.389C325.822 79.389 326.29 79.573 326.658 79.941C327.026 80.2937 327.21 80.7383 327.21 81.275C327.21 81.8117 327.026 82.264 326.658 82.632C326.29 82.9847 325.822 83.161 325.255 83.161ZM78.6494 101.946L73.2214 112.411V118H70.0014V112.411L64.5504 101.946H68.1844L71.6344 109.283L75.0614 101.946H78.6494ZM86.1644 118.207C84.9378 118.207 83.8338 117.939 82.8524 117.402C81.8711 116.85 81.0968 116.076 80.5294 115.079C79.9774 114.082 79.7014 112.932 79.7014 111.629C79.7014 110.326 79.9851 109.176 80.5524 108.179C81.1351 107.182 81.9248 106.416 82.9214 105.879C83.9181 105.327 85.0298 105.051 86.2564 105.051C87.4831 105.051 88.5948 105.327 89.5914 105.879C90.5881 106.416 91.3701 107.182 91.9374 108.179C92.5201 109.176 92.8114 110.326 92.8114 111.629C92.8114 112.932 92.5124 114.082 91.9144 115.079C91.3318 116.076 90.5344 116.85 89.5224 117.402C88.5258 117.939 87.4064 118.207 86.1644 118.207ZM86.1644 115.401C86.7471 115.401 87.2914 115.263 87.7974 114.987C88.3188 114.696 88.7328 114.266 89.0394 113.699C89.3461 113.132 89.4994 112.442 89.4994 111.629C89.4994 110.418 89.1774 109.49 88.5334 108.846C87.9048 108.187 87.1304 107.857 86.2104 107.857C85.2904 107.857 84.5161 108.187 83.8874 108.846C83.2741 109.49 82.9674 110.418 82.9674 111.629C82.9674 112.84 83.2664 113.776 83.8644 114.435C84.4778 115.079 85.2444 115.401 86.1644 115.401ZM107.202 105.258V118H103.959V116.39C103.545 116.942 103.001 117.379 102.326 117.701C101.667 118.008 100.946 118.161 100.164 118.161C99.1678 118.161 98.2861 117.954 97.5194 117.54C96.7528 117.111 96.1471 116.49 95.7024 115.677C95.2731 114.849 95.0584 113.868 95.0584 112.733V105.258H98.2784V112.273C98.2784 113.285 98.5314 114.067 99.0374 114.619C99.5434 115.156 100.233 115.424 101.107 115.424C101.997 115.424 102.694 115.156 103.2 114.619C103.706 114.067 103.959 113.285 103.959 112.273V105.258H107.202ZM111.023 101.946H114.404L111.92 107.742H109.712L111.023 101.946ZM122.026 115.033L125.246 105.258H128.673L123.958 118H120.048L115.356 105.258H118.806L122.026 115.033ZM142.327 111.353C142.327 111.813 142.296 112.227 142.235 112.595H132.92C132.997 113.515 133.319 114.236 133.886 114.757C134.453 115.278 135.151 115.539 135.979 115.539C137.175 115.539 138.026 115.025 138.532 113.998H142.005C141.637 115.225 140.932 116.237 139.889 117.034C138.846 117.816 137.566 118.207 136.048 118.207C134.821 118.207 133.717 117.939 132.736 117.402C131.77 116.85 131.011 116.076 130.459 115.079C129.922 114.082 129.654 112.932 129.654 111.629C129.654 110.31 129.922 109.153 130.459 108.156C130.996 107.159 131.747 106.393 132.713 105.856C133.679 105.319 134.791 105.051 136.048 105.051C137.259 105.051 138.34 105.312 139.291 105.833C140.257 106.354 141.001 107.098 141.522 108.064C142.059 109.015 142.327 110.111 142.327 111.353ZM138.992 110.433C138.977 109.605 138.678 108.946 138.095 108.455C137.512 107.949 136.799 107.696 135.956 107.696C135.159 107.696 134.484 107.941 133.932 108.432C133.395 108.907 133.066 109.574 132.943 110.433H138.992ZM149.33 111.629C149.33 110.31 149.598 109.16 150.135 108.179C150.671 107.182 151.415 106.416 152.366 105.879C153.316 105.327 154.405 105.051 155.632 105.051C157.211 105.051 158.514 105.45 159.542 106.247C160.584 107.029 161.282 108.133 161.635 109.559H158.162C157.978 109.007 157.663 108.578 157.219 108.271C156.789 107.949 156.253 107.788 155.609 107.788C154.689 107.788 153.96 108.125 153.424 108.8C152.887 109.459 152.619 110.402 152.619 111.629C152.619 112.84 152.887 113.783 153.424 114.458C153.96 115.117 154.689 115.447 155.609 115.447C156.912 115.447 157.763 114.864 158.162 113.699H161.635C161.282 115.079 160.584 116.175 159.542 116.988C158.499 117.801 157.196 118.207 155.632 118.207C154.405 118.207 153.316 117.939 152.366 117.402C151.415 116.85 150.671 116.083 150.135 115.102C149.598 114.105 149.33 112.948 149.33 111.629ZM167.214 107.236C167.628 106.561 168.164 106.032 168.824 105.649C169.498 105.266 170.265 105.074 171.124 105.074V108.455H170.273C169.261 108.455 168.494 108.693 167.973 109.168C167.467 109.643 167.214 110.471 167.214 111.652V118H163.994V105.258H167.214V107.236ZM185.138 111.353C185.138 111.813 185.107 112.227 185.046 112.595H175.731C175.807 113.515 176.129 114.236 176.697 114.757C177.264 115.278 177.962 115.539 178.79 115.539C179.986 115.539 180.837 115.025 181.343 113.998H184.816C184.448 115.225 183.742 116.237 182.7 117.034C181.657 117.816 180.377 118.207 178.859 118.207C177.632 118.207 176.528 117.939 175.547 117.402C174.581 116.85 173.822 116.076 173.27 115.079C172.733 114.082 172.465 112.932 172.465 111.629C172.465 110.31 172.733 109.153 173.27 108.156C173.806 107.159 174.558 106.393 175.524 105.856C176.49 105.319 177.601 105.051 178.859 105.051C180.07 105.051 181.151 105.312 182.102 105.833C183.068 106.354 183.811 107.098 184.333 108.064C184.869 109.015 185.138 110.111 185.138 111.353ZM181.803 110.433C181.787 109.605 181.488 108.946 180.906 108.455C180.323 107.949 179.61 107.696 178.767 107.696C177.969 107.696 177.295 107.941 176.743 108.432C176.206 108.907 175.876 109.574 175.754 110.433H181.803ZM186.66 111.583C186.66 110.295 186.913 109.153 187.419 108.156C187.94 107.159 188.638 106.393 189.512 105.856C190.401 105.319 191.39 105.051 192.479 105.051C193.43 105.051 194.258 105.243 194.963 105.626C195.684 106.009 196.259 106.492 196.688 107.075V105.258H199.931V118H196.688V116.137C196.274 116.735 195.699 117.233 194.963 117.632C194.242 118.015 193.407 118.207 192.456 118.207C191.383 118.207 190.401 117.931 189.512 117.379C188.638 116.827 187.94 116.053 187.419 115.056C186.913 114.044 186.66 112.886 186.66 111.583ZM196.688 111.629C196.688 110.847 196.535 110.18 196.228 109.628C195.921 109.061 195.507 108.631 194.986 108.34C194.465 108.033 193.905 107.88 193.307 107.88C192.709 107.88 192.157 108.026 191.651 108.317C191.145 108.608 190.731 109.038 190.409 109.605C190.102 110.157 189.949 110.816 189.949 111.583C189.949 112.35 190.102 113.024 190.409 113.607C190.731 114.174 191.145 114.611 191.651 114.918C192.172 115.225 192.724 115.378 193.307 115.378C193.905 115.378 194.465 115.232 194.986 114.941C195.507 114.634 195.921 114.205 196.228 113.653C196.535 113.086 196.688 112.411 196.688 111.629ZM206.825 107.903V114.067C206.825 114.496 206.924 114.811 207.124 115.01C207.338 115.194 207.691 115.286 208.182 115.286H209.677V118H207.653C204.939 118 203.582 116.681 203.582 114.044V107.903H202.064V105.258H203.582V102.107H206.825V105.258H209.677V107.903H206.825ZM223.838 111.353C223.838 111.813 223.807 112.227 223.746 112.595H214.431C214.507 113.515 214.829 114.236 215.397 114.757C215.964 115.278 216.662 115.539 217.49 115.539C218.686 115.539 219.537 115.025 220.043 113.998H223.516C223.148 115.225 222.442 116.237 221.4 117.034C220.357 117.816 219.077 118.207 217.559 118.207C216.332 118.207 215.228 117.939 214.247 117.402C213.281 116.85 212.522 116.076 211.97 115.079C211.433 114.082 211.165 112.932 211.165 111.629C211.165 110.31 211.433 109.153 211.97 108.156C212.506 107.159 213.258 106.393 214.224 105.856C215.19 105.319 216.301 105.051 217.559 105.051C218.77 105.051 219.851 105.312 220.802 105.833C221.768 106.354 222.511 107.098 223.033 108.064C223.569 109.015 223.838 110.111 223.838 111.353ZM220.503 110.433C220.487 109.605 220.188 108.946 219.606 108.455C219.023 107.949 218.31 107.696 217.467 107.696C216.669 107.696 215.995 107.941 215.443 108.432C214.906 108.907 214.576 109.574 214.454 110.433H220.503ZM225.36 111.583C225.36 110.295 225.613 109.153 226.119 108.156C226.64 107.159 227.346 106.393 228.235 105.856C229.124 105.319 230.113 105.051 231.202 105.051C232.03 105.051 232.82 105.235 233.571 105.603C234.322 105.956 234.92 106.431 235.365 107.029V100.98H238.631V118H235.365V116.114C234.966 116.743 234.407 117.249 233.686 117.632C232.965 118.015 232.13 118.207 231.179 118.207C230.106 118.207 229.124 117.931 228.235 117.379C227.346 116.827 226.64 116.053 226.119 115.056C225.613 114.044 225.36 112.886 225.36 111.583ZM235.388 111.629C235.388 110.847 235.235 110.18 234.928 109.628C234.621 109.061 234.207 108.631 233.686 108.34C233.165 108.033 232.605 107.88 232.007 107.88C231.409 107.88 230.857 108.026 230.351 108.317C229.845 108.608 229.431 109.038 229.109 109.605C228.802 110.157 228.649 110.816 228.649 111.583C228.649 112.35 228.802 113.024 229.109 113.607C229.431 114.174 229.845 114.611 230.351 114.918C230.872 115.225 231.424 115.378 232.007 115.378C232.605 115.378 233.165 115.232 233.686 114.941C234.207 114.634 234.621 114.205 234.928 113.653C235.235 113.086 235.388 112.411 235.388 111.629ZM259.446 105.258L251.557 124.026H248.13L250.89 117.678L245.784 105.258H249.395L252.684 114.159L256.019 105.258H259.446ZM266.84 118.207C265.614 118.207 264.51 117.939 263.528 117.402C262.547 116.85 261.773 116.076 261.205 115.079C260.653 114.082 260.377 112.932 260.377 111.629C260.377 110.326 260.661 109.176 261.228 108.179C261.811 107.182 262.601 106.416 263.597 105.879C264.594 105.327 265.706 105.051 266.932 105.051C268.159 105.051 269.271 105.327 270.267 105.879C271.264 106.416 272.046 107.182 272.613 108.179C273.196 109.176 273.487 110.326 273.487 111.629C273.487 112.932 273.188 114.082 272.59 115.079C272.008 116.076 271.21 116.85 270.198 117.402C269.202 117.939 268.082 118.207 266.84 118.207ZM266.84 115.401C267.423 115.401 267.967 115.263 268.473 114.987C268.995 114.696 269.409 114.266 269.715 113.699C270.022 113.132 270.175 112.442 270.175 111.629C270.175 110.418 269.853 109.49 269.209 108.846C268.581 108.187 267.806 107.857 266.886 107.857C265.966 107.857 265.192 108.187 264.563 108.846C263.95 109.49 263.643 110.418 263.643 111.629C263.643 112.84 263.942 113.776 264.54 114.435C265.154 115.079 265.92 115.401 266.84 115.401ZM287.878 105.258V118H284.635V116.39C284.221 116.942 283.677 117.379 283.002 117.701C282.343 118.008 281.622 118.161 280.84 118.161C279.844 118.161 278.962 117.954 278.195 117.54C277.429 117.111 276.823 116.49 276.378 115.677C275.949 114.849 275.734 113.868 275.734 112.733V105.258H278.954V112.273C278.954 113.285 279.207 114.067 279.713 114.619C280.219 115.156 280.909 115.424 281.783 115.424C282.673 115.424 283.37 115.156 283.876 114.619C284.382 114.067 284.635 113.285 284.635 112.273V105.258H287.878ZM294.275 107.236C294.689 106.561 295.226 106.032 295.885 105.649C296.56 105.266 297.327 105.074 298.185 105.074V108.455H297.334C296.322 108.455 295.556 108.693 295.034 109.168C294.528 109.643 294.275 110.471 294.275 111.652V118H291.055V105.258H294.275V107.236ZM311.677 107.903H309.446V118H306.18V107.903H304.731V105.258H306.18V104.614C306.18 103.05 306.624 101.9 307.514 101.164C308.403 100.428 309.745 100.083 311.539 100.129V102.843C310.757 102.828 310.212 102.958 309.906 103.234C309.599 103.51 309.446 104.008 309.446 104.729V105.258H311.677V107.903ZM315.396 103.74C314.829 103.74 314.354 103.564 313.97 103.211C313.602 102.843 313.418 102.391 313.418 101.854C313.418 101.317 313.602 100.873 313.97 100.52C314.354 100.152 314.829 99.968 315.396 99.968C315.964 99.968 316.431 100.152 316.799 100.52C317.183 100.873 317.374 101.317 317.374 101.854C317.374 102.391 317.183 102.843 316.799 103.211C316.431 103.564 315.964 103.74 315.396 103.74ZM316.983 105.258V118H313.763V105.258H316.983ZM323.385 107.236C323.799 106.561 324.335 106.032 324.995 105.649C325.669 105.266 326.436 105.074 327.295 105.074V108.455H326.444C325.432 108.455 324.665 108.693 324.144 109.168C323.638 109.643 323.385 110.471 323.385 111.652V118H320.165V105.258H323.385V107.236ZM334.339 118.207C333.297 118.207 332.361 118.023 331.533 117.655C330.705 117.272 330.046 116.758 329.555 116.114C329.08 115.47 328.819 114.757 328.773 113.975H332.016C332.078 114.466 332.315 114.872 332.729 115.194C333.159 115.516 333.688 115.677 334.316 115.677C334.93 115.677 335.405 115.554 335.742 115.309C336.095 115.064 336.271 114.749 336.271 114.366C336.271 113.952 336.057 113.645 335.627 113.446C335.213 113.231 334.546 113.001 333.626 112.756C332.676 112.526 331.894 112.288 331.28 112.043C330.682 111.798 330.161 111.422 329.716 110.916C329.287 110.41 329.072 109.728 329.072 108.869C329.072 108.164 329.272 107.52 329.67 106.937C330.084 106.354 330.667 105.894 331.418 105.557C332.185 105.22 333.082 105.051 334.109 105.051C335.627 105.051 336.839 105.434 337.743 106.201C338.648 106.952 339.146 107.972 339.238 109.26H336.156C336.11 108.754 335.896 108.355 335.512 108.064C335.144 107.757 334.646 107.604 334.017 107.604C333.435 107.604 332.982 107.711 332.66 107.926C332.354 108.141 332.2 108.44 332.2 108.823C332.2 109.252 332.415 109.582 332.844 109.812C333.274 110.027 333.941 110.249 334.845 110.479C335.765 110.709 336.524 110.947 337.122 111.192C337.72 111.437 338.234 111.821 338.663 112.342C339.108 112.848 339.338 113.523 339.353 114.366C339.353 115.102 339.146 115.761 338.732 116.344C338.334 116.927 337.751 117.387 336.984 117.724C336.233 118.046 335.351 118.207 334.339 118.207ZM345.746 107.903V114.067C345.746 114.496 345.845 114.811 346.045 115.01C346.259 115.194 346.612 115.286 347.103 115.286H348.598V118H346.574C343.86 118 342.503 116.681 342.503 114.044V107.903H340.985V105.258H342.503V102.107H345.746V105.258H348.598V107.903H345.746ZM355.566 111.629C355.566 110.31 355.834 109.16 356.371 108.179C356.908 107.182 357.651 106.416 358.602 105.879C359.553 105.327 360.641 105.051 361.868 105.051C363.447 105.051 364.751 105.45 365.778 106.247C366.821 107.029 367.518 108.133 367.871 109.559H364.398C364.214 109.007 363.9 108.578 363.455 108.271C363.026 107.949 362.489 107.788 361.845 107.788C360.925 107.788 360.197 108.125 359.66 108.8C359.123 109.459 358.855 110.402 358.855 111.629C358.855 112.84 359.123 113.783 359.66 114.458C360.197 115.117 360.925 115.447 361.845 115.447C363.148 115.447 363.999 114.864 364.398 113.699H367.871C367.518 115.079 366.821 116.175 365.778 116.988C364.735 117.801 363.432 118.207 361.868 118.207C360.641 118.207 359.553 117.939 358.602 117.402C357.651 116.85 356.908 116.083 356.371 115.102C355.834 114.105 355.566 112.948 355.566 111.629ZM369.402 111.583C369.402 110.295 369.655 109.153 370.161 108.156C370.682 107.159 371.38 106.393 372.254 105.856C373.143 105.319 374.132 105.051 375.221 105.051C376.172 105.051 377 105.243 377.705 105.626C378.426 106.009 379.001 106.492 379.43 107.075V105.258H382.673V118H379.43V116.137C379.016 116.735 378.441 117.233 377.705 117.632C376.984 118.015 376.149 118.207 375.198 118.207C374.125 118.207 373.143 117.931 372.254 117.379C371.38 116.827 370.682 116.053 370.161 115.056C369.655 114.044 369.402 112.886 369.402 111.583ZM379.43 111.629C379.43 110.847 379.277 110.18 378.97 109.628C378.663 109.061 378.249 108.631 377.728 108.34C377.207 108.033 376.647 107.88 376.049 107.88C375.451 107.88 374.899 108.026 374.393 108.317C373.887 108.608 373.473 109.038 373.151 109.605C372.844 110.157 372.691 110.816 372.691 111.583C372.691 112.35 372.844 113.024 373.151 113.607C373.473 114.174 373.887 114.611 374.393 114.918C374.914 115.225 375.466 115.378 376.049 115.378C376.647 115.378 377.207 115.232 377.728 114.941C378.249 114.634 378.663 114.205 378.97 113.653C379.277 113.086 379.43 112.411 379.43 111.629ZM401.642 105.074C403.206 105.074 404.463 105.557 405.414 106.523C406.38 107.474 406.863 108.808 406.863 110.525V118H403.643V110.962C403.643 109.965 403.39 109.206 402.884 108.685C402.378 108.148 401.688 107.88 400.814 107.88C399.94 107.88 399.242 108.148 398.721 108.685C398.215 109.206 397.962 109.965 397.962 110.962V118H394.742V110.962C394.742 109.965 394.489 109.206 393.983 108.685C393.477 108.148 392.787 107.88 391.913 107.88C391.024 107.88 390.318 108.148 389.797 108.685C389.291 109.206 389.038 109.965 389.038 110.962V118H385.818V105.258H389.038V106.799C389.452 106.262 389.981 105.841 390.625 105.534C391.284 105.227 392.005 105.074 392.787 105.074C393.784 105.074 394.673 105.289 395.455 105.718C396.237 106.132 396.843 106.73 397.272 107.512C397.686 106.776 398.284 106.186 399.066 105.741C399.863 105.296 400.722 105.074 401.642 105.074ZM413.139 107.098C413.553 106.515 414.12 106.032 414.841 105.649C415.577 105.25 416.412 105.051 417.348 105.051C418.436 105.051 419.418 105.319 420.292 105.856C421.181 106.393 421.879 107.159 422.385 108.156C422.906 109.137 423.167 110.28 423.167 111.583C423.167 112.886 422.906 114.044 422.385 115.056C421.879 116.053 421.181 116.827 420.292 117.379C419.418 117.931 418.436 118.207 417.348 118.207C416.412 118.207 415.584 118.015 414.864 117.632C414.158 117.249 413.583 116.766 413.139 116.183V124.072H409.919V105.258H413.139V107.098ZM419.878 111.583C419.878 110.816 419.717 110.157 419.395 109.605C419.088 109.038 418.674 108.608 418.153 108.317C417.647 108.026 417.095 107.88 416.497 107.88C415.914 107.88 415.362 108.033 414.841 108.34C414.335 108.631 413.921 109.061 413.599 109.628C413.292 110.195 413.139 110.862 413.139 111.629C413.139 112.396 413.292 113.063 413.599 113.63C413.921 114.197 414.335 114.634 414.841 114.941C415.362 115.232 415.914 115.378 416.497 115.378C417.095 115.378 417.647 115.225 418.153 114.918C418.674 114.611 419.088 114.174 419.395 113.607C419.717 113.04 419.878 112.365 419.878 111.583ZM424.678 111.583C424.678 110.295 424.931 109.153 425.437 108.156C425.959 107.159 426.656 106.393 427.53 105.856C428.42 105.319 429.409 105.051 430.497 105.051C431.448 105.051 432.276 105.243 432.981 105.626C433.702 106.009 434.277 106.492 434.706 107.075V105.258H437.949V118H434.706V116.137C434.292 116.735 433.717 117.233 432.981 117.632C432.261 118.015 431.425 118.207 430.474 118.207C429.401 118.207 428.42 117.931 427.53 117.379C426.656 116.827 425.959 116.053 425.437 115.056C424.931 114.044 424.678 112.886 424.678 111.583ZM434.706 111.629C434.706 110.847 434.553 110.18 434.246 109.628C433.94 109.061 433.526 108.631 433.004 108.34C432.483 108.033 431.923 107.88 431.325 107.88C430.727 107.88 430.175 108.026 429.669 108.317C429.163 108.608 428.749 109.038 428.427 109.605C428.121 110.157 427.967 110.816 427.967 111.583C427.967 112.35 428.121 113.024 428.427 113.607C428.749 114.174 429.163 114.611 429.669 114.918C430.191 115.225 430.743 115.378 431.325 115.378C431.923 115.378 432.483 115.232 433.004 114.941C433.526 114.634 433.94 114.205 434.246 113.653C434.553 113.086 434.706 112.411 434.706 111.629ZM442.727 103.74C442.16 103.74 441.685 103.564 441.301 103.211C440.933 102.843 440.749 102.391 440.749 101.854C440.749 101.317 440.933 100.873 441.301 100.52C441.685 100.152 442.16 99.968 442.727 99.968C443.295 99.968 443.762 100.152 444.13 100.52C444.514 100.873 444.705 101.317 444.705 101.854C444.705 102.391 444.514 102.843 444.13 103.211C443.762 103.564 443.295 103.74 442.727 103.74ZM444.314 105.258V118H441.094V105.258H444.314ZM452.487 105.051C453.437 105.051 454.273 105.243 454.994 105.626C455.714 105.994 456.282 106.477 456.696 107.075V105.258H459.939V118.092C459.939 119.273 459.701 120.323 459.226 121.243C458.75 122.178 458.037 122.914 457.087 123.451C456.136 124.003 454.986 124.279 453.637 124.279C451.827 124.279 450.34 123.857 449.175 123.014C448.025 122.171 447.373 121.021 447.22 119.564H450.417C450.585 120.147 450.946 120.607 451.498 120.944C452.065 121.297 452.747 121.473 453.545 121.473C454.48 121.473 455.239 121.189 455.822 120.622C456.404 120.07 456.696 119.227 456.696 118.092V116.114C456.282 116.712 455.707 117.21 454.971 117.609C454.25 118.008 453.422 118.207 452.487 118.207C451.413 118.207 450.432 117.931 449.543 117.379C448.653 116.827 447.948 116.053 447.427 115.056C446.921 114.044 446.668 112.886 446.668 111.583C446.668 110.295 446.921 109.153 447.427 108.156C447.948 107.159 448.646 106.393 449.52 105.856C450.409 105.319 451.398 105.051 452.487 105.051ZM456.696 111.629C456.696 110.847 456.542 110.18 456.236 109.628C455.929 109.061 455.515 108.631 454.994 108.34C454.472 108.033 453.913 107.88 453.315 107.88C452.717 107.88 452.165 108.026 451.659 108.317C451.153 108.608 450.739 109.038 450.417 109.605C450.11 110.157 449.957 110.816 449.957 111.583C449.957 112.35 450.11 113.024 450.417 113.607C450.739 114.174 451.153 114.611 451.659 114.918C452.18 115.225 452.732 115.378 453.315 115.378C453.913 115.378 454.472 115.232 454.994 114.941C455.515 114.634 455.929 114.205 456.236 113.653C456.542 113.086 456.696 112.411 456.696 111.629ZM470.145 105.074C471.663 105.074 472.889 105.557 473.825 106.523C474.76 107.474 475.228 108.808 475.228 110.525V118H472.008V110.962C472.008 109.95 471.755 109.176 471.249 108.639C470.743 108.087 470.053 107.811 469.179 107.811C468.289 107.811 467.584 108.087 467.063 108.639C466.557 109.176 466.304 109.95 466.304 110.962V118H463.084V105.258H466.304V106.845C466.733 106.293 467.277 105.864 467.937 105.557C468.611 105.235 469.347 105.074 470.145 105.074Z" fill="white"/>
</g>
<g opacity="0.2">
<circle cx="51.3753" cy="15.0537" r="1.82618" fill="white"/>
<path fill-rule="evenodd" clip-rule="evenodd" d="M47.6299 17.7844C48.2572 18.3972 48.2689 19.4026 47.6561 20.03C44.1654 23.603 41.6794 28.034 40.4492 32.8753C40.2332 33.7254 39.3691 34.2393 38.5191 34.0233C37.6691 33.8074 37.1551 32.9432 37.3711 32.0932C38.7389 26.7102 41.503 21.7834 45.3843 17.8106C45.9972 17.1832 47.0026 17.1715 47.6299 17.7844Z" fill="white"/>
<path fill-rule="evenodd" clip-rule="evenodd" d="M89.4127 64.8924C82.7845 71.1581 73.8409 75 64 75C43.5655 75 27 58.4345 27 38C27 17.5655 43.5655 1 64 1C84.4345 1 101 17.5655 101 38C101 39.0592 100.955 40.108 100.868 41.1447C100.905 40.4961 100.923 39.8428 100.923 39.1852C100.923 20.1526 85.4941 4.72362 66.4615 4.72362C47.4289 4.72362 31.9999 20.1526 31.9999 39.1852C31.9999 58.2177 47.4289 73.6467 66.4615 73.6467C75.2766 73.6467 83.3186 70.337 89.4127 64.8924Z" fill="white"/>
</g>
<g opacity="0.2">
<circle cx="44.3753" cy="173.054" r="1.82618" fill="white"/>
<path fill-rule="evenodd" clip-rule="evenodd" d="M40.6299 175.784C41.2572 176.397 41.2689 177.403 40.6561 178.03C37.1654 181.603 34.6794 186.034 33.4492 190.875C33.2332 191.725 32.3691 192.239 31.5191 192.023C30.6691 191.807 30.1551 190.943 30.3711 190.093C31.7389 184.71 34.503 179.783 38.3843 175.811C38.9972 175.183 40.0026 175.171 40.6299 175.784Z" fill="white"/>
<path fill-rule="evenodd" clip-rule="evenodd" d="M82.4127 222.892C75.7845 229.158 66.8409 233 57 233C36.5655 233 20 216.435 20 196C20 175.565 36.5655 159 57 159C77.4345 159 94 175.565 94 196C94 197.059 93.9555 198.108 93.8682 199.145C93.9046 198.496 93.923 197.843 93.923 197.185C93.923 178.153 78.4941 162.724 59.4615 162.724C40.4289 162.724 24.9999 178.153 24.9999 197.185C24.9999 216.218 40.4289 231.647 59.4615 231.647C68.2766 231.647 76.3186 228.337 82.4127 222.892Z" fill="white"/>
</g>
<g opacity="0.2">
<circle cx="201.87" cy="144.267" r="0.814378" fill="white"/>
<path fill-rule="evenodd" clip-rule="evenodd" d="M200.2 145.485C200.48 145.758 200.485 146.207 200.212 146.486C198.655 148.08 197.546 150.056 196.998 152.215C196.901 152.594 196.516 152.823 196.137 152.727C195.758 152.63 195.529 152.245 195.625 151.866C196.235 149.465 197.468 147.268 199.198 145.497C199.472 145.217 199.92 145.212 200.2 145.485Z" fill="white"/>
<path fill-rule="evenodd" clip-rule="evenodd" d="M218.833 166.492C215.877 169.287 211.889 171 207.5 171C198.387 171 191 163.613 191 154.5C191 145.387 198.387 138 207.5 138C216.613 138 224 145.387 224 154.5C224 154.972 223.98 155.44 223.941 155.902C223.957 155.613 223.966 155.322 223.966 155.029C223.966 146.541 217.085 139.661 208.598 139.661C200.11 139.661 193.23 146.541 193.23 155.029C193.23 163.516 200.11 170.396 208.598 170.396C212.529 170.396 216.115 168.921 218.833 166.492Z" fill="white"/>
</g>
<g opacity="0.2">
<circle cx="328.235" cy="22.7479" r="0.616953" fill="white"/>
<path fill-rule="evenodd" clip-rule="evenodd" d="M326.97 23.6704C327.181 23.8774 327.185 24.2171 326.978 24.429C325.799 25.6362 324.959 27.1331 324.544 28.7687C324.471 29.0559 324.179 29.2295 323.892 29.1565C323.604 29.0836 323.431 28.7916 323.504 28.5045C323.966 26.6859 324.9 25.0214 326.211 23.6792C326.418 23.4673 326.758 23.4633 326.97 23.6704Z" fill="white"/>
<path fill-rule="evenodd" clip-rule="evenodd" d="M341.085 39.5852C338.846 41.702 335.825 43 332.5 43C325.596 43 320 37.4036 320 30.5C320 23.5964 325.596 18 332.5 18C339.404 18 345 23.5964 345 30.5C345 30.8579 344.985 31.2122 344.955 31.5625C344.968 31.3433 344.974 31.1226 344.974 30.9004C344.974 24.4705 339.762 19.258 333.332 19.258C326.902 19.258 321.689 24.4705 321.689 30.9004C321.689 37.3303 326.902 42.5428 333.332 42.5428C336.31 42.5428 339.027 41.4246 341.085 39.5852Z" fill="white"/>
</g>
<g opacity="0.2">
<circle cx="448.87" cy="148.267" r="0.814378" fill="white"/>
<path fill-rule="evenodd" clip-rule="evenodd" d="M447.2 149.485C447.48 149.758 447.485 150.207 447.212 150.486C445.655 152.08 444.546 154.056 443.998 156.215C443.901 156.594 443.516 156.823 443.137 156.727C442.758 156.63 442.529 156.245 442.625 155.866C443.235 153.465 444.468 151.268 446.198 149.497C446.472 149.217 446.92 149.212 447.2 149.485Z" fill="white"/>
<path fill-rule="evenodd" clip-rule="evenodd" d="M465.833 170.492C462.877 173.287 458.889 175 454.5 175C445.387 175 438 167.613 438 158.5C438 149.387 445.387 142 454.5 142C463.613 142 471 149.387 471 158.5C471 158.972 470.98 159.44 470.941 159.902C470.957 159.613 470.966 159.322 470.966 159.029C470.966 150.541 464.085 143.661 455.598 143.661C447.11 143.661 440.23 150.541 440.23 159.029C440.23 167.516 447.11 174.396 455.598 174.396C459.529 174.396 463.115 172.921 465.833 170.492Z" fill="white"/>
</g>
<g opacity="0.2">
<circle cx="474.951" cy="13.4217" r="2.39378" fill="white"/>
<path fill-rule="evenodd" clip-rule="evenodd" d="M470.042 17.0011C470.864 17.8045 470.879 19.1224 470.076 19.9447C465.5 24.6283 462.242 30.4365 460.629 36.7825C460.346 37.8967 459.213 38.5705 458.099 38.2873C456.985 38.0042 456.311 36.8715 456.594 35.7573C458.387 28.7012 462.011 22.2431 467.098 17.0355C467.902 16.2131 469.219 16.1978 470.042 17.0011Z" fill="white"/>
<path fill-rule="evenodd" clip-rule="evenodd" d="M524.811 78.7507C516.123 86.964 504.4 92 491.5 92C464.714 92 443 70.2858 443 43.5C443 16.7142 464.714 -5 491.5 -5C518.286 -5 540 16.7142 540 43.5C540 44.8884 539.942 46.2632 539.827 47.6221C539.875 46.7719 539.899 45.9156 539.899 45.0535C539.899 20.1054 519.675 -0.119043 494.727 -0.119043C469.778 -0.119043 449.554 20.1054 449.554 45.0535C449.554 70.0016 469.778 90.2261 494.727 90.2261C506.281 90.2261 516.823 85.8876 524.811 78.7507Z" fill="white"/>
</g>
</g>
<defs>
<filter id="filter0_d_144_637" x="60.5503" y="66.67" width="418.677" height="65.609" filterUnits="userSpaceOnUse" color-interpolation-filters="sRGB">
<feFlood flood-opacity="0" result="BackgroundImageFix"/>
<feColorMatrix in="SourceAlpha" type="matrix" values="0 0 0 0 0 0 0 0 0 0 0 0 0 0 0 0 0 0 127 0" result="hardAlpha"/>
<feOffset dy="4"/>
<feGaussianBlur stdDeviation="2"/>
<feComposite in2="hardAlpha" operator="out"/>
<feColorMatrix type="matrix" values="0 0 0 0 0 0 0 0 0 0 0 0 0 0 0 0 0 0 0.25 0"/>
<feBlend mode="normal" in2="BackgroundImageFix" result="effect1_dropShadow_144_637"/>
<feBlend mode="normal" in="SourceGraphic" in2="effect1_dropShadow_144_637" result="shape"/>
</filter>
<clipPath id="clip0_144_637">
<rect width="540" height="185" rx="8" fill="white"/>
</clipPath>
</defs>
</svg>
