<svg width="600" height="296" viewBox="0 0 600 296" fill="none" xmlns="http://www.w3.org/2000/svg">
<g clip-path="url(#clip0_101_2094)">
<rect width="600" height="296" fill="#F8F8F8"/>
<circle cx="43.1758" cy="30.5965" r="0.987124" fill="url(#paint0_linear_101_2094)"/>
<path fill-rule="evenodd" clip-rule="evenodd" d="M41.1513 32.0727C41.4904 32.404 41.4967 32.9475 41.1655 33.2866C39.2786 35.218 37.9348 37.6131 37.2699 40.23C37.1531 40.6895 36.686 40.9673 36.2265 40.8506C35.7671 40.7338 35.4892 40.2667 35.606 39.8072C36.3454 36.8975 37.8395 34.2344 39.9375 32.0869C40.2687 31.7478 40.8122 31.7415 41.1513 32.0727Z" fill="url(#paint1_linear_101_2094)"/>
<path fill-rule="evenodd" clip-rule="evenodd" d="M63.7374 57.5357C60.1545 60.923 55.3198 63 50 63C38.9543 63 30 54.0457 30 43C30 31.9543 38.9543 23 50 23C61.0457 23 70 31.9543 70 43C70 43.573 69.9759 44.1404 69.9287 44.7012C69.9484 44.3502 69.9584 43.9966 69.9584 43.6406C69.9584 33.3527 61.6184 25.0128 51.3305 25.0128C41.0426 25.0128 32.7026 33.3527 32.7026 43.6406C32.7026 53.9285 41.0426 62.2685 51.3305 62.2685C56.0958 62.2685 60.4432 60.4791 63.7374 57.5357Z" fill="url(#paint2_linear_101_2094)"/>
<path fill-rule="evenodd" clip-rule="evenodd" d="M44.2774 40.2053C44.0924 37.1295 46.4359 34.486 49.5117 34.301L55.6594 33.9312C56.8424 33.86 57.8591 34.7613 57.9303 35.9444C58.0015 37.1274 57.1001 38.1441 55.9171 38.2153L49.7694 38.5851C49.0596 38.6278 48.5188 39.2378 48.5615 39.9476L49.2509 51.4076C49.322 52.5906 48.4207 53.6073 47.2377 53.6785C46.0546 53.7497 45.0379 52.8483 44.9668 51.6653L44.2774 40.2053Z" fill="url(#paint3_linear_101_2094)"/>
<path fill-rule="evenodd" clip-rule="evenodd" d="M44.4836 43.6325C44.4124 42.4495 45.3138 41.4328 46.4968 41.3616L53.2014 40.9583C54.3844 40.8872 55.4011 41.7885 55.4723 42.9715C55.5435 44.1545 54.6421 45.1713 53.4591 45.2424L46.7545 45.6457C45.5715 45.7169 44.5548 44.8156 44.4836 43.6325Z" fill="url(#paint4_linear_101_2094)"/>
<path d="M93.5 36.342V38.715H87.389V42.474H92.072V44.805H87.389V51H84.449V36.342H93.5ZM106.568 39.366V51H103.607V49.53C103.229 50.034 102.732 50.433 102.116 50.727C101.514 51.007 100.856 51.147 100.142 51.147C99.2317 51.147 98.4267 50.958 97.7267 50.58C97.0267 50.188 96.4737 49.621 96.0677 48.879C95.6757 48.123 95.4797 47.227 95.4797 46.191V39.366H98.4197V45.771C98.4197 46.695 98.6507 47.409 99.1127 47.913C99.5747 48.403 100.205 48.648 101.003 48.648C101.815 48.648 102.452 48.403 102.914 47.913C103.376 47.409 103.607 46.695 103.607 45.771V39.366H106.568ZM115.916 39.198C117.302 39.198 118.422 39.639 119.276 40.521C120.13 41.389 120.557 42.607 120.557 44.175V51H117.617V44.574C117.617 43.65 117.386 42.943 116.924 42.453C116.462 41.949 115.832 41.697 115.034 41.697C114.222 41.697 113.578 41.949 113.102 42.453C112.64 42.943 112.409 43.65 112.409 44.574V51H109.469V39.366H112.409V40.815C112.801 40.311 113.298 39.919 113.9 39.639C114.516 39.345 115.188 39.198 115.916 39.198ZM122.596 45.141C122.596 43.965 122.827 42.922 123.289 42.012C123.765 41.102 124.409 40.402 125.221 39.912C126.033 39.422 126.936 39.177 127.93 39.177C128.686 39.177 129.407 39.345 130.093 39.681C130.779 40.003 131.325 40.437 131.731 40.983V35.46H134.713V51H131.731V49.278C131.367 49.852 130.856 50.314 130.198 50.664C129.54 51.014 128.777 51.189 127.909 51.189C126.929 51.189 126.033 50.937 125.221 50.433C124.409 49.929 123.765 49.222 123.289 48.312C122.827 47.388 122.596 46.331 122.596 45.141ZM131.752 45.183C131.752 44.469 131.612 43.86 131.332 43.356C131.052 42.838 130.674 42.446 130.198 42.18C129.722 41.9 129.211 41.76 128.665 41.76C128.119 41.76 127.615 41.893 127.153 42.159C126.691 42.425 126.313 42.817 126.019 43.335C125.739 43.839 125.599 44.441 125.599 45.141C125.599 45.841 125.739 46.457 126.019 46.989C126.313 47.507 126.691 47.906 127.153 48.186C127.629 48.466 128.133 48.606 128.665 48.606C129.211 48.606 129.722 48.473 130.198 48.207C130.674 47.927 131.052 47.535 131.332 47.031C131.612 46.513 131.752 45.897 131.752 45.183ZM140.525 41.046C140.903 40.514 141.421 40.073 142.079 39.723C142.751 39.359 143.514 39.177 144.368 39.177C145.362 39.177 146.258 39.422 147.056 39.912C147.868 40.402 148.505 41.102 148.967 42.012C149.443 42.908 149.681 43.951 149.681 45.141C149.681 46.331 149.443 47.388 148.967 48.312C148.505 49.222 147.868 49.929 147.056 50.433C146.258 50.937 145.362 51.189 144.368 51.189C143.514 51.189 142.758 51.014 142.1 50.664C141.456 50.314 140.931 49.873 140.525 49.341V56.544H137.585V39.366H140.525V41.046ZM146.678 45.141C146.678 44.441 146.531 43.839 146.237 43.335C145.957 42.817 145.579 42.425 145.103 42.159C144.641 41.893 144.137 41.76 143.591 41.76C143.059 41.76 142.555 41.9 142.079 42.18C141.617 42.446 141.239 42.838 140.945 43.356C140.665 43.874 140.525 44.483 140.525 45.183C140.525 45.883 140.665 46.492 140.945 47.01C141.239 47.528 141.617 47.927 142.079 48.207C142.555 48.473 143.059 48.606 143.591 48.606C144.137 48.606 144.641 48.466 145.103 48.186C145.579 47.906 145.957 47.507 146.237 46.989C146.531 46.471 146.678 45.855 146.678 45.141ZM156.983 51.189C155.863 51.189 154.855 50.944 153.959 50.454C153.063 49.95 152.356 49.243 151.838 48.333C151.334 47.423 151.082 46.373 151.082 45.183C151.082 43.993 151.341 42.943 151.859 42.033C152.391 41.123 153.112 40.423 154.022 39.933C154.932 39.429 155.947 39.177 157.067 39.177C158.187 39.177 159.202 39.429 160.112 39.933C161.022 40.423 161.736 41.123 162.254 42.033C162.786 42.943 163.052 43.993 163.052 45.183C163.052 46.373 162.779 47.423 162.233 48.333C161.701 49.243 160.973 49.95 160.049 50.454C159.139 50.944 158.117 51.189 156.983 51.189ZM156.983 48.627C157.515 48.627 158.012 48.501 158.474 48.249C158.95 47.983 159.328 47.591 159.608 47.073C159.888 46.555 160.028 45.925 160.028 45.183C160.028 44.077 159.734 43.23 159.146 42.642C158.572 42.04 157.865 41.739 157.025 41.739C156.185 41.739 155.478 42.04 154.904 42.642C154.344 43.23 154.064 44.077 154.064 45.183C154.064 46.289 154.337 47.143 154.883 47.745C155.443 48.333 156.143 48.627 156.983 48.627ZM168.149 41.046C168.527 40.514 169.045 40.073 169.703 39.723C170.375 39.359 171.138 39.177 171.992 39.177C172.986 39.177 173.882 39.422 174.68 39.912C175.492 40.402 176.129 41.102 176.591 42.012C177.067 42.908 177.305 43.951 177.305 45.141C177.305 46.331 177.067 47.388 176.591 48.312C176.129 49.222 175.492 49.929 174.68 50.433C173.882 50.937 172.986 51.189 171.992 51.189C171.138 51.189 170.382 51.014 169.724 50.664C169.08 50.314 168.555 49.873 168.149 49.341V56.544H165.209V39.366H168.149V41.046ZM174.302 45.141C174.302 44.441 174.155 43.839 173.861 43.335C173.581 42.817 173.203 42.425 172.727 42.159C172.265 41.893 171.761 41.76 171.215 41.76C170.683 41.76 170.179 41.9 169.703 42.18C169.241 42.446 168.863 42.838 168.569 43.356C168.289 43.874 168.149 44.483 168.149 45.183C168.149 45.883 168.289 46.492 168.569 47.01C168.863 47.528 169.241 47.927 169.703 48.207C170.179 48.473 170.683 48.606 171.215 48.606C171.761 48.606 172.265 48.466 172.727 48.186C173.203 47.906 173.581 47.507 173.861 46.989C174.155 46.471 174.302 45.855 174.302 45.141Z" fill="url(#paint5_linear_101_2094)"/>
<g clip-path="url(#clip1_101_2094)">
<path d="M508.6 35.8H497.4C496.52 35.8 495.8 36.52 495.8 37.4V48.6C495.8 49.4808 496.52 50.2 497.4 50.2H503V44.6H501.4V42.62H503V40.98C503 39.2488 503.97 38.0328 506.013 38.0328L507.455 38.0344V40.1184H506.498C505.702 40.1184 505.4 40.7152 505.4 41.2688V42.6208H507.454L507 44.6H505.4V50.2H508.6C509.48 50.2 510.2 49.4808 510.2 48.6V37.4C510.2 36.52 509.48 35.8 508.6 35.8Z" fill="#9E9E9E"/>
</g>
<g clip-path="url(#clip2_101_2094)">
<path d="M526.137 35.0039C524.413 35.0039 523.003 36.4144 523.003 38.1379V47.8634C523.003 49.5869 524.413 50.9969 526.137 50.9969H535.862C537.586 50.9969 538.996 49.5869 538.996 47.8634V38.1379C538.996 36.4145 537.586 35.0039 535.862 35.0039H526.137ZM526.925 37.6431C527.752 37.6431 528.261 38.1856 528.276 38.8987C528.276 39.596 527.752 40.1538 526.909 40.1538H526.894C526.083 40.1538 525.559 39.5961 525.559 38.8987C525.559 38.1856 526.099 37.6431 526.925 37.6431H526.925ZM534.046 40.976C535.636 40.976 536.827 42.0148 536.827 44.247V48.4142H534.412V44.5264C534.412 43.5494 534.062 42.8829 533.188 42.8829C532.521 42.8829 532.123 43.3322 531.949 43.7661C531.885 43.9214 531.869 44.1383 531.869 44.3555V48.4142H529.454C529.454 48.4142 529.486 41.8284 529.454 41.1465H531.87V42.1757C532.191 41.6805 532.765 40.976 534.046 40.976V40.976ZM525.702 41.147H528.117V48.4142H525.702V41.147Z" fill="#9E9E9E"/>
</g>
<g clip-path="url(#clip3_101_2094)">
<path d="M570.697 36.8952C570.148 37.7111 569.475 38.4066 568.678 38.9817C568.686 39.1359 568.69 39.3103 568.69 39.5047C568.69 40.5849 568.532 41.6665 568.217 42.7493C567.902 43.8322 567.421 44.8687 566.774 45.8588C566.127 46.849 565.356 47.7261 564.461 48.4903C563.566 49.2545 562.49 49.8639 561.234 50.3183C559.978 50.7728 558.631 51 557.194 51C554.952 51 552.887 50.3947 551 49.1841C551.335 49.2214 551.656 49.24 551.964 49.24C553.837 49.24 555.51 48.6631 556.983 47.5092C556.11 47.4932 555.327 47.2244 554.636 46.7027C553.945 46.181 553.47 45.5144 553.21 44.7029C553.467 44.7518 553.721 44.7763 553.971 44.7763C554.331 44.7763 554.686 44.7293 555.035 44.6353C554.103 44.4486 553.329 43.9844 552.715 43.2427C552.101 42.5009 551.794 41.6448 551.794 40.6743V40.6243C552.366 40.941 552.976 41.1095 553.624 41.1298C553.072 40.7617 552.634 40.2817 552.311 39.6898C551.988 39.0979 551.826 38.4573 551.826 37.7681C551.826 37.0413 552.008 36.3644 552.372 35.7376C553.386 36.9814 554.614 37.9755 556.057 38.7199C557.499 39.4643 559.047 39.8777 560.7 39.9601C560.63 39.6663 560.594 39.3597 560.594 39.0404C560.594 37.9252 560.989 36.973 561.778 36.1838C562.567 35.3946 563.52 35 564.635 35C565.802 35 566.786 35.4251 567.585 36.2754C568.498 36.0945 569.353 35.7673 570.15 35.2938C569.843 36.2601 569.252 37.0055 568.375 37.5301C569.181 37.4344 569.955 37.2228 570.697 36.8952H570.697Z" fill="#9E9E9E"/>
</g>
<rect y="201" width="600" height="110" fill="white"/>
<g clip-path="url(#clip4_101_2094)">
<rect x="30" y="92" width="540" height="185" rx="8" fill="url(#paint6_linear_101_2094)"/>
<path opacity="0.1" d="M597 508.223L295 179.223L597 306.764V508.223Z" fill="white"/>
<path opacity="0.1" d="M583.499 92.6874L295.46 179.38L639 249.646L583.499 92.6874Z" fill="white"/>
<path opacity="0.1" d="M295.425 179.498L196.71 -28.5066L49.4763 -8.14014L295.425 179.498Z" fill="white"/>
<path opacity="0.1" d="M295.46 179.498L394.175 -28.5066L541.409 -8.14014L295.46 179.498Z" fill="white"/>
<path opacity="0.1" d="M295 179.223L-7 340.213V508.223H53.2494L295 179.223Z" fill="white"/>
<path opacity="0.1" d="M295.32 179.223L230 507.223H402L295.32 179.223Z" fill="white"/>
<path opacity="0.1" d="M296.828 179.501L-24.814 260.109L1.38506 115.533L296.828 179.501Z" fill="white"/>
<g filter="url(#filter0_d_101_2094)">
<path d="M198.904 172.946V189H195.684V182.169H188.807V189H185.587V172.946H188.807V179.547H195.684V172.946H198.904ZM201.245 182.583C201.245 181.295 201.498 180.153 202.004 179.156C202.526 178.159 203.223 177.393 204.097 176.856C204.987 176.319 205.976 176.051 207.064 176.051C208.015 176.051 208.843 176.243 209.548 176.626C210.269 177.009 210.844 177.492 211.273 178.075V176.258H214.516V189H211.273V187.137C210.859 187.735 210.284 188.233 209.548 188.632C208.828 189.015 207.992 189.207 207.041 189.207C205.968 189.207 204.987 188.931 204.097 188.379C203.223 187.827 202.526 187.053 202.004 186.056C201.498 185.044 201.245 183.886 201.245 182.583ZM211.273 182.629C211.273 181.847 211.12 181.18 210.813 180.628C210.507 180.061 210.093 179.631 209.571 179.34C209.05 179.033 208.49 178.88 207.892 178.88C207.294 178.88 206.742 179.026 206.236 179.317C205.73 179.608 205.316 180.038 204.994 180.605C204.688 181.157 204.534 181.816 204.534 182.583C204.534 183.35 204.688 184.024 204.994 184.607C205.316 185.174 205.73 185.611 206.236 185.918C206.758 186.225 207.31 186.378 207.892 186.378C208.49 186.378 209.05 186.232 209.571 185.941C210.093 185.634 210.507 185.205 210.813 184.653C211.12 184.086 211.273 183.411 211.273 182.629ZM220.881 178.098C221.295 177.515 221.863 177.032 222.583 176.649C223.319 176.25 224.155 176.051 225.09 176.051C226.179 176.051 227.16 176.319 228.034 176.856C228.924 177.393 229.621 178.159 230.127 179.156C230.649 180.137 230.909 181.28 230.909 182.583C230.909 183.886 230.649 185.044 230.127 186.056C229.621 187.053 228.924 187.827 228.034 188.379C227.16 188.931 226.179 189.207 225.09 189.207C224.155 189.207 223.327 189.015 222.606 188.632C221.901 188.249 221.326 187.766 220.881 187.183V195.072H217.661V176.258H220.881V178.098ZM227.62 182.583C227.62 181.816 227.459 181.157 227.137 180.605C226.831 180.038 226.417 179.608 225.895 179.317C225.389 179.026 224.837 178.88 224.239 178.88C223.657 178.88 223.105 179.033 222.583 179.34C222.077 179.631 221.663 180.061 221.341 180.628C221.035 181.195 220.881 181.862 220.881 182.629C220.881 183.396 221.035 184.063 221.341 184.63C221.663 185.197 222.077 185.634 222.583 185.941C223.105 186.232 223.657 186.378 224.239 186.378C224.837 186.378 225.389 186.225 225.895 185.918C226.417 185.611 226.831 185.174 227.137 184.607C227.459 184.04 227.62 183.365 227.62 182.583ZM236.469 178.098C236.883 177.515 237.45 177.032 238.171 176.649C238.907 176.25 239.743 176.051 240.678 176.051C241.767 176.051 242.748 176.319 243.622 176.856C244.511 177.393 245.209 178.159 245.715 179.156C246.236 180.137 246.497 181.28 246.497 182.583C246.497 183.886 246.236 185.044 245.715 186.056C245.209 187.053 244.511 187.827 243.622 188.379C242.748 188.931 241.767 189.207 240.678 189.207C239.743 189.207 238.915 189.015 238.194 188.632C237.489 188.249 236.914 187.766 236.469 187.183V195.072H233.249V176.258H236.469V178.098ZM243.208 182.583C243.208 181.816 243.047 181.157 242.725 180.605C242.418 180.038 242.004 179.608 241.483 179.317C240.977 179.026 240.425 178.88 239.827 178.88C239.244 178.88 238.692 179.033 238.171 179.34C237.665 179.631 237.251 180.061 236.929 180.628C236.622 181.195 236.469 181.862 236.469 182.629C236.469 183.396 236.622 184.063 236.929 184.63C237.251 185.197 237.665 185.634 238.171 185.941C238.692 186.232 239.244 186.378 239.827 186.378C240.425 186.378 240.977 186.225 241.483 185.918C242.004 185.611 242.418 185.174 242.725 184.607C243.047 184.04 243.208 183.365 243.208 182.583ZM261.027 176.258L253.138 195.026H249.711L252.471 188.678L247.365 176.258H250.976L254.265 185.159L257.6 176.258H261.027ZM278.087 185.941H271.693L270.635 189H267.254L273.027 172.923H276.776L282.549 189H279.145L278.087 185.941ZM277.213 183.365L274.89 176.649L272.567 183.365H277.213ZM291.768 176.074C293.286 176.074 294.513 176.557 295.448 177.523C296.383 178.474 296.851 179.808 296.851 181.525V189H293.631V181.962C293.631 180.95 293.378 180.176 292.872 179.639C292.366 179.087 291.676 178.811 290.802 178.811C289.913 178.811 289.207 179.087 288.686 179.639C288.18 180.176 287.927 180.95 287.927 181.962V189H284.707V176.258H287.927V177.845C288.356 177.293 288.901 176.864 289.56 176.557C290.235 176.235 290.971 176.074 291.768 176.074ZM306.974 176.074C308.492 176.074 309.719 176.557 310.654 177.523C311.59 178.474 312.057 179.808 312.057 181.525V189H308.837V181.962C308.837 180.95 308.584 180.176 308.078 179.639C307.572 179.087 306.882 178.811 306.008 178.811C305.119 178.811 304.414 179.087 303.892 179.639C303.386 180.176 303.133 180.95 303.133 181.962V189H299.913V176.258H303.133V177.845C303.563 177.293 304.107 176.864 304.766 176.557C305.441 176.235 306.177 176.074 306.974 176.074ZM316.752 174.74C316.185 174.74 315.71 174.564 315.326 174.211C314.958 173.843 314.774 173.391 314.774 172.854C314.774 172.317 314.958 171.873 315.326 171.52C315.71 171.152 316.185 170.968 316.752 170.968C317.32 170.968 317.787 171.152 318.155 171.52C318.539 171.873 318.73 172.317 318.73 172.854C318.73 173.391 318.539 173.843 318.155 174.211C317.787 174.564 317.32 174.74 316.752 174.74ZM318.339 176.258V189H315.119V176.258H318.339ZM326.834 186.033L330.054 176.258H333.481L328.766 189H324.856L320.164 176.258H323.614L326.834 186.033ZM347.134 182.353C347.134 182.813 347.103 183.227 347.042 183.595H337.727C337.804 184.515 338.126 185.236 338.693 185.757C339.26 186.278 339.958 186.539 340.786 186.539C341.982 186.539 342.833 186.025 343.339 184.998H346.812C346.444 186.225 345.739 187.237 344.696 188.034C343.653 188.816 342.373 189.207 340.855 189.207C339.628 189.207 338.524 188.939 337.543 188.402C336.577 187.85 335.818 187.076 335.266 186.079C334.729 185.082 334.461 183.932 334.461 182.629C334.461 181.31 334.729 180.153 335.266 179.156C335.803 178.159 336.554 177.393 337.52 176.856C338.486 176.319 339.598 176.051 340.855 176.051C342.066 176.051 343.147 176.312 344.098 176.833C345.064 177.354 345.808 178.098 346.329 179.064C346.866 180.015 347.134 181.111 347.134 182.353ZM343.799 181.433C343.784 180.605 343.485 179.946 342.902 179.455C342.319 178.949 341.606 178.696 340.763 178.696C339.966 178.696 339.291 178.941 338.739 179.432C338.202 179.907 337.873 180.574 337.75 181.433H343.799ZM352.704 178.236C353.118 177.561 353.655 177.032 354.314 176.649C354.989 176.266 355.756 176.074 356.614 176.074V179.455H355.763C354.751 179.455 353.985 179.693 353.463 180.168C352.957 180.643 352.704 181.471 352.704 182.652V189H349.484V176.258H352.704V178.236ZM363.659 189.207C362.617 189.207 361.681 189.023 360.853 188.655C360.025 188.272 359.366 187.758 358.875 187.114C358.4 186.47 358.139 185.757 358.093 184.975H361.336C361.398 185.466 361.635 185.872 362.049 186.194C362.479 186.516 363.008 186.677 363.636 186.677C364.25 186.677 364.725 186.554 365.062 186.309C365.415 186.064 365.591 185.749 365.591 185.366C365.591 184.952 365.377 184.645 364.947 184.446C364.533 184.231 363.866 184.001 362.946 183.756C361.996 183.526 361.214 183.288 360.6 183.043C360.002 182.798 359.481 182.422 359.036 181.916C358.607 181.41 358.392 180.728 358.392 179.869C358.392 179.164 358.592 178.52 358.99 177.937C359.404 177.354 359.987 176.894 360.738 176.557C361.505 176.22 362.402 176.051 363.429 176.051C364.947 176.051 366.159 176.434 367.063 177.201C367.968 177.952 368.466 178.972 368.558 180.26H365.476C365.43 179.754 365.216 179.355 364.832 179.064C364.464 178.757 363.966 178.604 363.337 178.604C362.755 178.604 362.302 178.711 361.98 178.926C361.674 179.141 361.52 179.44 361.52 179.823C361.52 180.252 361.735 180.582 362.164 180.812C362.594 181.027 363.261 181.249 364.165 181.479C365.085 181.709 365.844 181.947 366.442 182.192C367.04 182.437 367.554 182.821 367.983 183.342C368.428 183.848 368.658 184.523 368.673 185.366C368.673 186.102 368.466 186.761 368.052 187.344C367.654 187.927 367.071 188.387 366.304 188.724C365.553 189.046 364.671 189.207 363.659 189.207ZM370.488 182.583C370.488 181.295 370.741 180.153 371.247 179.156C371.769 178.159 372.466 177.393 373.34 176.856C374.23 176.319 375.219 176.051 376.307 176.051C377.258 176.051 378.086 176.243 378.791 176.626C379.512 177.009 380.087 177.492 380.516 178.075V176.258H383.759V189H380.516V187.137C380.102 187.735 379.527 188.233 378.791 188.632C378.071 189.015 377.235 189.207 376.284 189.207C375.211 189.207 374.23 188.931 373.34 188.379C372.466 187.827 371.769 187.053 371.247 186.056C370.741 185.044 370.488 183.886 370.488 182.583ZM380.516 182.629C380.516 181.847 380.363 181.18 380.056 180.628C379.75 180.061 379.336 179.631 378.814 179.34C378.293 179.033 377.733 178.88 377.135 178.88C376.537 178.88 375.985 179.026 375.479 179.317C374.973 179.608 374.559 180.038 374.237 180.605C373.931 181.157 373.777 181.816 373.777 182.583C373.777 183.35 373.931 184.024 374.237 184.607C374.559 185.174 374.973 185.611 375.479 185.918C376.001 186.225 376.553 186.378 377.135 186.378C377.733 186.378 378.293 186.232 378.814 185.941C379.336 185.634 379.75 185.205 380.056 184.653C380.363 184.086 380.516 183.411 380.516 182.629ZM390.124 178.236C390.538 177.561 391.075 177.032 391.734 176.649C392.409 176.266 393.176 176.074 394.034 176.074V179.455H393.183C392.171 179.455 391.405 179.693 390.883 180.168C390.377 180.643 390.124 181.471 390.124 182.652V189H386.904V176.258H390.124V178.236ZM408.393 176.258L400.504 195.026H397.077L399.837 188.678L394.731 176.258H398.342L401.631 185.159L404.966 176.258H408.393ZM414.292 172.67L413.924 183.779H411.21L410.819 172.67H414.292ZM412.636 189.161C412.053 189.161 411.57 188.985 411.187 188.632C410.819 188.264 410.635 187.812 410.635 187.275C410.635 186.738 410.819 186.294 411.187 185.941C411.57 185.573 412.053 185.389 412.636 185.389C413.203 185.389 413.671 185.573 414.039 185.941C414.407 186.294 414.591 186.738 414.591 187.275C414.591 187.812 414.407 188.264 414.039 188.632C413.671 188.985 413.203 189.161 412.636 189.161Z" fill="white"/>
</g>
</g>
</g>
<defs>
<filter id="filter0_d_101_2094" x="181.587" y="170.968" width="237.004" height="32.104" filterUnits="userSpaceOnUse" color-interpolation-filters="sRGB">
<feFlood flood-opacity="0" result="BackgroundImageFix"/>
<feColorMatrix in="SourceAlpha" type="matrix" values="0 0 0 0 0 0 0 0 0 0 0 0 0 0 0 0 0 0 127 0" result="hardAlpha"/>
<feOffset dy="4"/>
<feGaussianBlur stdDeviation="2"/>
<feComposite in2="hardAlpha" operator="out"/>
<feColorMatrix type="matrix" values="0 0 0 0 0 0 0 0 0 0 0 0 0 0 0 0 0 0 0.25 0"/>
<feBlend mode="normal" in2="BackgroundImageFix" result="effect1_dropShadow_101_2094"/>
<feBlend mode="normal" in="SourceGraphic" in2="effect1_dropShadow_101_2094" result="shape"/>
</filter>
<linearGradient id="paint0_linear_101_2094" x1="43.212" y1="29.3715" x2="42.4552" y2="31.8407" gradientUnits="userSpaceOnUse">
<stop stop-color="#1E4B9B"/>
<stop offset="1" stop-color="#A13DCF"/>
</linearGradient>
<linearGradient id="paint1_linear_101_2094" x1="38.6015" y1="30.738" x2="33.7986" y2="40.8343" gradientUnits="userSpaceOnUse">
<stop stop-color="#1E4B9B"/>
<stop offset="1" stop-color="#A13DCF"/>
</linearGradient>
<linearGradient id="paint2_linear_101_2094" x1="50.7333" y1="18.1802" x2="35.3985" y2="68.2096" gradientUnits="userSpaceOnUse">
<stop stop-color="#1E4B9B"/>
<stop offset="1" stop-color="#A13DCF"/>
</linearGradient>
<linearGradient id="paint3_linear_101_2094" x1="50.987" y1="31.8938" x2="42.8972" y2="54.6947" gradientUnits="userSpaceOnUse">
<stop stop-color="#1E4B9B"/>
<stop offset="1" stop-color="#A13DCF"/>
</linearGradient>
<linearGradient id="paint4_linear_101_2094" x1="50.0195" y1="40.6316" x2="49.6765" y2="46.4523" gradientUnits="userSpaceOnUse">
<stop stop-color="#1E4B9B"/>
<stop offset="1" stop-color="#A13DCF"/>
</linearGradient>
<linearGradient id="paint5_linear_101_2094" x1="132.242" y1="24.1441" x2="127.769" y2="67.4661" gradientUnits="userSpaceOnUse">
<stop stop-color="#1E4B9B"/>
<stop offset="1" stop-color="#A13DCF"/>
</linearGradient>
<linearGradient id="paint6_linear_101_2094" x1="309.9" y1="69.7083" x2="283.609" y2="320.073" gradientUnits="userSpaceOnUse">
<stop stop-color="#1E4B9B"/>
<stop offset="1" stop-color="#A13DCF"/>
</linearGradient>
<clipPath id="clip0_101_2094">
<rect width="600" height="296" fill="white"/>
</clipPath>
<clipPath id="clip1_101_2094">
<rect width="16" height="16" fill="white" transform="translate(495 35)"/>
</clipPath>
<clipPath id="clip2_101_2094">
<rect width="16" height="16" fill="white" transform="translate(523 35)"/>
</clipPath>
<clipPath id="clip3_101_2094">
<rect width="19.6968" height="16" fill="white" transform="translate(551 35)"/>
</clipPath>
<clipPath id="clip4_101_2094">
<rect x="30" y="92" width="540" height="185" rx="8" fill="white"/>
</clipPath>
</defs>
</svg>
