<svg width="16" height="16" viewBox="0 0 16 16" fill="none" xmlns="http://www.w3.org/2000/svg">
<path d="M3.13696 0.0039978C1.41349 0.0039978 0.00292969 1.41453 0.00292969 3.13803V12.8635C0.00292969 14.587 1.41346 15.997 3.13696 15.997H12.8624C14.5859 15.997 15.9959 14.587 15.9959 12.8635V3.13803C15.9959 1.41456 14.5859 0.0039978 12.8624 0.0039978H3.13696ZM3.92522 2.64317C4.75159 2.64317 5.26059 3.18566 5.27631 3.89877C5.27631 4.59613 4.75155 5.15387 3.90923 5.15387H3.89373C3.08309 5.15387 2.55914 4.59616 2.55914 3.89877C2.55914 3.18568 3.09895 2.64317 3.9252 2.64317H3.92522ZM11.0465 5.97613C12.6358 5.97613 13.8271 7.01488 13.8271 9.2471V13.4143H11.4119V9.52649C11.4119 8.54953 11.0623 7.88301 10.1883 7.88301C9.52101 7.88301 9.12328 8.33225 8.94866 8.76624C8.88487 8.9215 8.86919 9.13835 8.86919 9.35555V13.4143H6.45394C6.45394 13.4143 6.48563 6.82848 6.45394 6.14656H8.86968V7.17574C9.19064 6.68054 9.76475 5.97611 11.0465 5.97611V5.97613ZM2.7016 6.14709H5.11685V13.4143H2.7016V6.14709Z" fill="#9E9E9E"/>
</svg>
