<svg width="16" height="16" viewBox="0 0 16 16" fill="none" xmlns="http://www.w3.org/2000/svg">
<path d="M13.6 0.800003H2.40005C1.52005 0.800003 0.800049 1.52 0.800049 2.4V13.6C0.800049 14.4808 1.52005 15.2 2.40005 15.2H8.00005V9.6H6.40005V7.62H8.00005V5.98C8.00005 4.2488 8.96965 3.0328 11.0128 3.0328L12.4552 3.0344V5.1184H11.4976C10.7024 5.1184 10.4 5.7152 10.4 6.2688V7.6208H12.4544L12 9.6H10.4V15.2H13.6C14.48 15.2 15.2 14.4808 15.2 13.6V2.4C15.2 1.52 14.48 0.800003 13.6 0.800003Z" fill="#9E9E9E"/>
</svg>
